# xmcd
#
# Track frame offsets:
# 150
# 18305
# 34062
# 53832
# 70988
# 85327
# 100771
# 117853
# 138645
# 152792
# 168477
# 184650
# 203340
# 222044
# 241759
# 257299
# 274700
# 292891
# 304601
# 321693
# 341859
#
# Disc length: 4649 seconds
#
# Revision: 0
# Processed by: cddbd v1.5PL3 Copyright (c) Steve Scherf et al.
# Submitted via: Audion 3.0.2 (http://www.panic.com/audion/)
#
DISCID=28122715
DTITLE=? - ?
DYEAR=1900
DGENRE=
TTITLE0=???
TTITLE1=???
TTITLE2=???
TTITLE3=???
TTITLE4=???
TTITLE5=???
TTITLE6=???
TTITLE7=???
TTITLE8=???
TTITLE9=???
TTITLE10=???
TTITLE11=???
TTITLE12=???
TTITLE13=???
TTITLE14=???
TTITLE15=???
TTITLE16=???
TTITLE17=???
TTITLE18=???
TTITLE19=???
TTITLE20=???
EXTD=
EXTT0=
EXTT1=
EXTT2=
EXTT3=
EXTT4=
EXTT5=
EXTT6=
EXTT7=
EXTT8=
EXTT9=
EXTT10=
EXTT11=
EXTT12=
EXTT13=
EXTT14=
EXTT15=
EXTT16=
EXTT17=
EXTT18=
EXTT19=
EXTT20=
PLAYORDER=
